<svg xmlns="http://www.w3.org/2000/svg" version="1.1" width="90px" height="90px" viewBox="30 0 50 85" style="fill-rule:evenodd; clip-rule:evenodd; shape-rendering:geometricPrecision; text-rendering:geometricPrecision; image-rendering:optimizeQuality;"><defs><linearGradient id="grad1" x1="0%" y1="100%" x2="100%" y2="0%"><stop offset="0%" style="stop-color:#4be0fc; stop-opacity:1" /><stop offset="100%" style="stop-color:#1696e1; stop-opacity:1" /></linearGradient><linearGradient id="grad2" x1="100%" y1="100%" x2="100%" y2="0%"><stop offset="100%" style="stop-color:#4be0fc; stop-opacity:1" /><stop offset="0%" style="stop-color:#1696e1; stop-opacity:1" /></linearGradient></defs><g><polygon points="48,24 58,36 44,67 32,60" fill="url(#grad2)" /><polygon points="32,60 44,67 32.94,68.89" fill="url(#grad2)" /><polygon points="44,67 47.15,60 48,65.5" fill="url(#grad1)" /><polygon points="47.15,60 50.30,53 51.15,58.5" fill="url(#grad1)" /><circle cx="55" cy="25" r="18" fill="url(#grad1)" /><circle cx="72" cy="25" r="18" fill="white" /></g><g><rect x="70" y="30" width="16" height="45" fill="url(#grad2)" /><polygon points="78,81 70,75 86,75" fill="url(#grad2)" /><polygon points="86,67 86,75 88.5,71" fill="url(#grad1)" /><polygon points="86,67 86,59 88.5,63" fill="url(#grad1)" /><circle cx="77" cy="25" r="18" fill="url(#grad1)" /><circle cx="77" cy="23" r="3" fill="white" /></g></svg>
